<mxfile host="app.diagrams.net" agent="Mozilla/5.0 (Windows NT 10.0; Win64; x64) AppleWebKit/537.36 (KHTML, like Gecko) Chrome/134.0.0.0 Safari/537.36 OPR/119.0.0.0" version="27.0.9">
  <diagram name="Page-1" id="XOVQc04r9XP7A5a6WCp2">
    <mxGraphModel dx="1564" dy="621" grid="0" gridSize="10" guides="1" tooltips="1" connect="1" arrows="1" fold="1" page="0" pageScale="1" pageWidth="827" pageHeight="1169" math="0" shadow="0">
      <root>
        <mxCell id="0" />
        <mxCell id="1" parent="0" />
        <mxCell id="x9DXMicBa2vOHehBVCvL-71" value="" style="rounded=1;whiteSpace=wrap;html=1;fillColor=#f5f5f5;strokeColor=#000000;fontColor=#333333;glass=1;dashed=1;" vertex="1" parent="1">
          <mxGeometry x="642" y="57" width="195" height="344" as="geometry" />
        </mxCell>
        <mxCell id="x9DXMicBa2vOHehBVCvL-49" style="edgeStyle=orthogonalEdgeStyle;rounded=0;orthogonalLoop=1;jettySize=auto;html=1;exitX=1;exitY=0.5;exitDx=0;exitDy=0;exitPerimeter=0;" edge="1" parent="1" source="x9DXMicBa2vOHehBVCvL-5" target="x9DXMicBa2vOHehBVCvL-46">
          <mxGeometry relative="1" as="geometry">
            <mxPoint x="-8.6666259765625" y="220" as="targetPoint" />
          </mxGeometry>
        </mxCell>
        <mxCell id="x9DXMicBa2vOHehBVCvL-5" value="" style="shape=cylinder3;whiteSpace=wrap;html=1;boundedLbl=1;backgroundOutline=1;size=9.777801513671875;fillColor=#bac8d3;strokeColor=#FFFFFF;" vertex="1" parent="1">
          <mxGeometry x="-126" y="180" width="86" height="79" as="geometry" />
        </mxCell>
        <mxCell id="x9DXMicBa2vOHehBVCvL-53" style="edgeStyle=orthogonalEdgeStyle;rounded=0;orthogonalLoop=1;jettySize=auto;html=1;exitX=1;exitY=0.5;exitDx=0;exitDy=0;entryX=0;entryY=0.5;entryDx=0;entryDy=0;" edge="1" parent="1" source="x9DXMicBa2vOHehBVCvL-46" target="x9DXMicBa2vOHehBVCvL-52">
          <mxGeometry relative="1" as="geometry" />
        </mxCell>
        <mxCell id="x9DXMicBa2vOHehBVCvL-46" value="&lt;div style=&quot;line-height: 160%;&quot;&gt;&lt;ul&gt;&lt;li&gt;&lt;span style=&quot;background-color: transparent;&quot;&gt;Null Values Check&lt;/span&gt;&lt;/li&gt;&lt;li&gt;Missing Value Handling&lt;/li&gt;&lt;li&gt;Label Encoding&lt;/li&gt;&lt;li&gt;Feature Scaling&amp;nbsp;&lt;/li&gt;&lt;li&gt;Adasyn Class Balancing&lt;/li&gt;&lt;/ul&gt;&lt;/div&gt;" style="rounded=1;whiteSpace=wrap;html=1;fillColor=#d0cee2;strokeColor=#56517e;align=left;shadow=1;glass=1;fontSize=14;fontColor=default;sketch=1;curveFitting=1;jiggle=2;" vertex="1" parent="1">
          <mxGeometry x="11" y="130.75" width="205" height="177.5" as="geometry" />
        </mxCell>
        <mxCell id="x9DXMicBa2vOHehBVCvL-47" value="&lt;font&gt;CRD Dataset&lt;/font&gt;" style="text;strokeColor=none;align=center;fillColor=none;html=1;verticalAlign=middle;whiteSpace=wrap;rounded=0;fontSize=15;" vertex="1" parent="1">
          <mxGeometry x="-113" y="212" width="60" height="30" as="geometry" />
        </mxCell>
        <mxCell id="x9DXMicBa2vOHehBVCvL-55" style="edgeStyle=orthogonalEdgeStyle;rounded=0;orthogonalLoop=1;jettySize=auto;html=1;exitX=1;exitY=0.5;exitDx=0;exitDy=0;" edge="1" parent="1" source="x9DXMicBa2vOHehBVCvL-52">
          <mxGeometry relative="1" as="geometry">
            <mxPoint x="431.3333740234375" y="219" as="targetPoint" />
          </mxGeometry>
        </mxCell>
        <mxCell id="x9DXMicBa2vOHehBVCvL-75" style="edgeStyle=orthogonalEdgeStyle;rounded=0;orthogonalLoop=1;jettySize=auto;html=1;exitX=0.5;exitY=1;exitDx=0;exitDy=0;entryX=0.5;entryY=0;entryDx=0;entryDy=0;" edge="1" parent="1" source="x9DXMicBa2vOHehBVCvL-52" target="x9DXMicBa2vOHehBVCvL-76">
          <mxGeometry relative="1" as="geometry">
            <mxPoint x="310" y="313.0000305175781" as="targetPoint" />
          </mxGeometry>
        </mxCell>
        <mxCell id="x9DXMicBa2vOHehBVCvL-52" value="&lt;b&gt;&lt;font&gt;Train Test Split&lt;/font&gt;&lt;/b&gt;" style="rhombus;whiteSpace=wrap;html=1;fillColor=#bac8d3;strokeColor=#23445d;sketch=1;curveFitting=1;jiggle=2;fontSize=14;" vertex="1" parent="1">
          <mxGeometry x="245" y="179" width="130" height="80" as="geometry" />
        </mxCell>
        <mxCell id="x9DXMicBa2vOHehBVCvL-54" value="" style="verticalAlign=top;align=left;spacingTop=8;spacingLeft=2;spacingRight=12;shape=cube;size=10;direction=south;fontStyle=4;html=1;whiteSpace=wrap;fillColor=#fff2cc;strokeColor=#000000;gradientColor=#ffd966;" vertex="1" parent="1">
          <mxGeometry x="435" y="116" width="166" height="253" as="geometry" />
        </mxCell>
        <mxCell id="x9DXMicBa2vOHehBVCvL-56" value="&lt;div style=&quot;line-height: 160%;&quot;&gt;&lt;span style=&quot;background-color: transparent; color: light-dark(rgb(0, 0, 0), rgb(255, 255, 255));&quot;&gt;Logistic Regression&lt;/span&gt;&lt;div&gt;&lt;span style=&quot;background-color: transparent;&quot;&gt;Decision Tree&lt;/span&gt;&lt;/div&gt;&lt;div&gt;&lt;span style=&quot;background-color: transparent;&quot;&gt;Random Forest&lt;/span&gt;&lt;/div&gt;&lt;div&gt;&lt;span style=&quot;background-color: transparent;&quot;&gt;KNN&lt;/span&gt;&lt;/div&gt;&lt;div&gt;&lt;span style=&quot;background-color: transparent;&quot;&gt;AdaBoost&lt;/span&gt;&lt;/div&gt;&lt;div&gt;&lt;span style=&quot;background-color: transparent;&quot;&gt;Gradient Boosting&lt;/span&gt;&lt;/div&gt;&lt;div&gt;&lt;span style=&quot;background-color: transparent;&quot;&gt;XGBoost&lt;/span&gt;&lt;/div&gt;&lt;div&gt;&lt;span style=&quot;background-color: transparent;&quot;&gt;LightGBM&lt;/span&gt;&lt;/div&gt;&lt;div&gt;&lt;span style=&quot;background-color: transparent;&quot;&gt;CatBoost&lt;/span&gt;&lt;/div&gt;&lt;div&gt;&lt;b&gt;BO-StaEnsemble&lt;/b&gt;&lt;/div&gt;&lt;/div&gt;" style="text;align=left;fillColor=none;html=1;verticalAlign=middle;whiteSpace=wrap;rounded=0;fontSize=14;" vertex="1" parent="1">
          <mxGeometry x="450" y="123" width="161" height="243" as="geometry" />
        </mxCell>
        <mxCell id="x9DXMicBa2vOHehBVCvL-59" style="edgeStyle=orthogonalEdgeStyle;rounded=0;orthogonalLoop=1;jettySize=auto;html=1;exitX=1;exitY=0.5;exitDx=0;exitDy=0;" edge="1" parent="1" source="x9DXMicBa2vOHehBVCvL-58">
          <mxGeometry relative="1" as="geometry">
            <mxPoint x="642" y="345" as="targetPoint" />
          </mxGeometry>
        </mxCell>
        <mxCell id="x9DXMicBa2vOHehBVCvL-58" value="" style="rounded=0;whiteSpace=wrap;html=1;fillColor=none;" vertex="1" parent="1">
          <mxGeometry x="446" y="333" width="125" height="24" as="geometry" />
        </mxCell>
        <mxCell id="x9DXMicBa2vOHehBVCvL-69" style="edgeStyle=orthogonalEdgeStyle;rounded=0;orthogonalLoop=1;jettySize=auto;html=1;exitX=0.5;exitY=0;exitDx=0;exitDy=0;entryX=0.5;entryY=1;entryDx=0;entryDy=0;" edge="1" parent="1" source="x9DXMicBa2vOHehBVCvL-65" target="x9DXMicBa2vOHehBVCvL-67">
          <mxGeometry relative="1" as="geometry" />
        </mxCell>
        <mxCell id="x9DXMicBa2vOHehBVCvL-65" value="&lt;font style=&quot;font-size: 14px;&quot;&gt;META LEARNER&lt;/font&gt;" style="swimlane;whiteSpace=wrap;html=1;" vertex="1" parent="1">
          <mxGeometry x="655" y="217" width="169" height="61" as="geometry">
            <mxRectangle x="631" y="116" width="135" height="26" as="alternateBounds" />
          </mxGeometry>
        </mxCell>
        <mxCell id="x9DXMicBa2vOHehBVCvL-66" value="&lt;div&gt;Logistic Regression&lt;/div&gt;" style="text;html=1;align=center;verticalAlign=middle;resizable=0;points=[];autosize=1;strokeColor=none;fillColor=none;fontSize=13;" vertex="1" parent="x9DXMicBa2vOHehBVCvL-65">
          <mxGeometry x="19" y="30" width="131" height="28" as="geometry" />
        </mxCell>
        <mxCell id="x9DXMicBa2vOHehBVCvL-67" value="&lt;font style=&quot;font-size: 14px;&quot;&gt;Hyperparameter Optimization&lt;/font&gt;" style="swimlane;whiteSpace=wrap;html=1;startSize=37;" vertex="1" parent="1">
          <mxGeometry x="655" y="103" width="169" height="91" as="geometry">
            <mxRectangle x="631" y="116" width="135" height="26" as="alternateBounds" />
          </mxGeometry>
        </mxCell>
        <mxCell id="x9DXMicBa2vOHehBVCvL-68" value="Optuna for base and&amp;nbsp;&lt;div&gt;meta-learners&lt;/div&gt;" style="text;html=1;align=center;verticalAlign=middle;resizable=0;points=[];autosize=1;strokeColor=none;fillColor=none;fontSize=13;" vertex="1" parent="x9DXMicBa2vOHehBVCvL-67">
          <mxGeometry x="19" y="40" width="140" height="43" as="geometry" />
        </mxCell>
        <mxCell id="x9DXMicBa2vOHehBVCvL-70" style="edgeStyle=orthogonalEdgeStyle;rounded=0;orthogonalLoop=1;jettySize=auto;html=1;exitX=0.5;exitY=0;exitDx=0;exitDy=0;entryX=0.498;entryY=1.155;entryDx=0;entryDy=0;entryPerimeter=0;" edge="1" parent="1" source="x9DXMicBa2vOHehBVCvL-62" target="x9DXMicBa2vOHehBVCvL-66">
          <mxGeometry relative="1" as="geometry" />
        </mxCell>
        <mxCell id="x9DXMicBa2vOHehBVCvL-62" value="&lt;font style=&quot;font-size: 14px;&quot;&gt;BASE LEARNERS&lt;/font&gt;" style="swimlane;whiteSpace=wrap;html=1;" vertex="1" parent="1">
          <mxGeometry x="655" y="304" width="169" height="78" as="geometry">
            <mxRectangle x="631" y="116" width="135" height="26" as="alternateBounds" />
          </mxGeometry>
        </mxCell>
        <mxCell id="x9DXMicBa2vOHehBVCvL-63" value="Random Forest, XGBoost,&lt;div&gt;&amp;nbsp;Logistic Regression&lt;/div&gt;" style="text;html=1;align=center;verticalAlign=middle;resizable=0;points=[];autosize=1;strokeColor=none;fillColor=none;fontSize=13;" vertex="1" parent="x9DXMicBa2vOHehBVCvL-62">
          <mxGeometry y="31.5" width="170" height="43" as="geometry" />
        </mxCell>
        <mxCell id="x9DXMicBa2vOHehBVCvL-72" value="Train Set" style="text;strokeColor=none;align=center;fillColor=none;html=1;verticalAlign=middle;whiteSpace=wrap;rounded=0;fontSize=14;" vertex="1" parent="1">
          <mxGeometry x="365" y="182" width="60" height="30" as="geometry" />
        </mxCell>
        <mxCell id="x9DXMicBa2vOHehBVCvL-74" value="Test Set" style="text;strokeColor=none;align=center;fillColor=none;html=1;verticalAlign=middle;whiteSpace=wrap;rounded=0;fontSize=14;" vertex="1" parent="1">
          <mxGeometry x="322" y="259" width="60" height="30" as="geometry" />
        </mxCell>
        <mxCell id="x9DXMicBa2vOHehBVCvL-81" style="edgeStyle=orthogonalEdgeStyle;rounded=0;orthogonalLoop=1;jettySize=auto;html=1;exitX=0.5;exitY=1;exitDx=0;exitDy=0;" edge="1" parent="1" source="x9DXMicBa2vOHehBVCvL-76">
          <mxGeometry relative="1" as="geometry">
            <mxPoint x="310" y="390.3333740234375" as="targetPoint" />
          </mxGeometry>
        </mxCell>
        <mxCell id="x9DXMicBa2vOHehBVCvL-76" value="Model Evaluation" style="shape=process;whiteSpace=wrap;html=1;backgroundOutline=1;fillColor=#E6E6E6;glass=0;shadow=0;rounded=1;strokeWidth=2;fontStyle=0;fontSize=13;fontColor=#000000;strokeColor=#000000;fillStyle=auto;" vertex="1" parent="1">
          <mxGeometry x="241" y="297" width="138" height="49" as="geometry" />
        </mxCell>
        <mxCell id="x9DXMicBa2vOHehBVCvL-79" value="&lt;font style=&quot;font-size: 13px;&quot;&gt;Accuracy, Precision, Recall, F1 Score, Sensitivity, Specificity, MCC, Cohen&#39;s Kappa, ROC-AUC&amp;nbsp;&lt;/font&gt;" style="rounded=1;whiteSpace=wrap;html=1;sketch=1;curveFitting=1;jiggle=2;fillColor=#ffff88;strokeColor=#36393d;" vertex="1" parent="1">
          <mxGeometry x="45" y="391" width="567" height="43" as="geometry" />
        </mxCell>
        <mxCell id="x9DXMicBa2vOHehBVCvL-100" style="edgeStyle=orthogonalEdgeStyle;rounded=0;orthogonalLoop=1;jettySize=auto;html=1;exitX=1;exitY=0.5;exitDx=0;exitDy=0;entryX=0;entryY=0.5;entryDx=0;entryDy=0;" edge="1" parent="1" source="x9DXMicBa2vOHehBVCvL-96" target="x9DXMicBa2vOHehBVCvL-99">
          <mxGeometry relative="1" as="geometry" />
        </mxCell>
        <mxCell id="x9DXMicBa2vOHehBVCvL-96" value="&lt;ol style=&quot;line-height: 150%;&quot;&gt;&lt;li&gt;&lt;span style=&quot;font-size: 14px; background-color: transparent; color: light-dark(rgb(0, 0, 0), rgb(255, 255, 255)); line-height: 150%;&quot;&gt;Paired t-test&lt;/span&gt;&lt;/li&gt;&lt;li&gt;&lt;span style=&quot;font-size: 14px; background-color: transparent; color: light-dark(rgb(0, 0, 0), rgb(255, 255, 255)); line-height: 150%;&quot;&gt;McNemar&#39;s Test&lt;/span&gt;&lt;/li&gt;&lt;li&gt;&lt;span style=&quot;background-color: transparent;&quot;&gt;&lt;span style=&quot;font-size: 14px; line-height: 150%;&quot;&gt;Model Agreement Matrix&lt;/span&gt;&lt;/span&gt;&lt;/li&gt;&lt;li&gt;&lt;span style=&quot;background-color: transparent;&quot;&gt;&lt;span style=&quot;font-size: 14px; line-height: 150%;&quot;&gt;Performance Radar Plot&lt;/span&gt;&lt;/span&gt;&lt;/li&gt;&lt;li&gt;&lt;span style=&quot;background-color: transparent;&quot;&gt;&lt;span style=&quot;font-size: 14px; line-height: 150%;&quot;&gt;t-SNE for model probabilities&lt;/span&gt;&lt;/span&gt;&lt;/li&gt;&lt;/ol&gt;" style="shape=ext;double=1;rounded=1;whiteSpace=wrap;html=1;align=left;sketch=1;curveFitting=1;jiggle=2;glass=1;" vertex="1" parent="1">
          <mxGeometry x="-9" y="486" width="203" height="142" as="geometry" />
        </mxCell>
        <mxCell id="x9DXMicBa2vOHehBVCvL-98" style="edgeStyle=orthogonalEdgeStyle;rounded=0;orthogonalLoop=1;jettySize=auto;html=1;exitX=0;exitY=0.5;exitDx=0;exitDy=0;entryX=0.001;entryY=0.584;entryDx=0;entryDy=0;entryPerimeter=0;" edge="1" parent="1" source="x9DXMicBa2vOHehBVCvL-79" target="x9DXMicBa2vOHehBVCvL-96">
          <mxGeometry relative="1" as="geometry">
            <Array as="points">
              <mxPoint x="-52" y="413" />
              <mxPoint x="-52" y="565" />
            </Array>
          </mxGeometry>
        </mxCell>
        <mxCell id="x9DXMicBa2vOHehBVCvL-102" style="edgeStyle=orthogonalEdgeStyle;rounded=0;orthogonalLoop=1;jettySize=auto;html=1;exitX=1;exitY=0.5;exitDx=0;exitDy=0;entryX=-0.006;entryY=0.486;entryDx=0;entryDy=0;entryPerimeter=0;" edge="1" parent="1" source="x9DXMicBa2vOHehBVCvL-99" target="x9DXMicBa2vOHehBVCvL-101">
          <mxGeometry relative="1" as="geometry">
            <mxPoint x="523.5555419921875" y="557" as="targetPoint" />
          </mxGeometry>
        </mxCell>
        <mxCell id="x9DXMicBa2vOHehBVCvL-99" value="&lt;ol style=&quot;line-height: 150%;&quot;&gt;&lt;li&gt;&lt;span style=&quot;font-size: 14px; line-height: 150%;&quot;&gt;Econometric Analysis Dataset (EA)&lt;/span&gt;&lt;/li&gt;&lt;li&gt;&lt;span style=&quot;font-size: 14px; line-height: 150%;&quot;&gt;Default of Credit Card Clients (DCC)&lt;/span&gt;&lt;/li&gt;&lt;/ol&gt;" style="shape=ext;double=1;rounded=1;whiteSpace=wrap;html=1;align=left;glass=1;sketch=1;curveFitting=1;jiggle=2;shadow=0;" vertex="1" parent="1">
          <mxGeometry x="263" y="487.5" width="203" height="139" as="geometry" />
        </mxCell>
        <mxCell id="x9DXMicBa2vOHehBVCvL-101" value="&lt;ol style=&quot;line-height: 150%;&quot;&gt;&lt;li&gt;&lt;span style=&quot;font-size: 14px; background-color: transparent; color: light-dark(rgb(0, 0, 0), rgb(255, 255, 255));&quot;&gt;LIME&lt;/span&gt;&lt;/li&gt;&lt;li&gt;&lt;span style=&quot;font-size: 14px; background-color: transparent; color: light-dark(rgb(0, 0, 0), rgb(255, 255, 255));&quot;&gt;SHAP&lt;/span&gt;&lt;/li&gt;&lt;li&gt;&lt;span style=&quot;font-size: 14px; background-color: transparent; color: light-dark(rgb(0, 0, 0), rgb(255, 255, 255));&quot;&gt;Morris Sensitivity Analysis&lt;/span&gt;&lt;/li&gt;&lt;/ol&gt;" style="shape=ext;double=1;rounded=1;whiteSpace=wrap;html=1;align=left;glass=0;sketch=1;curveFitting=1;jiggle=2;shadow=0;" vertex="1" parent="1">
          <mxGeometry x="540" y="489" width="203" height="139" as="geometry" />
        </mxCell>
        <mxCell id="x9DXMicBa2vOHehBVCvL-103" value="Best Model" style="text;strokeColor=none;align=center;fillColor=none;html=1;verticalAlign=middle;whiteSpace=wrap;rounded=0;fontStyle=1;fontSize=11;" vertex="1" parent="1">
          <mxGeometry x="470" y="521" width="66" height="30" as="geometry" />
        </mxCell>
        <mxCell id="x9DXMicBa2vOHehBVCvL-104" value="Statistical Analysis" style="text;strokeColor=none;align=center;fillColor=none;html=1;verticalAlign=middle;whiteSpace=wrap;rounded=0;fontStyle=1;fontSize=14;" vertex="1" parent="1">
          <mxGeometry x="21.5" y="641" width="142" height="30" as="geometry" />
        </mxCell>
        <mxCell id="x9DXMicBa2vOHehBVCvL-105" value="Generizability Check" style="text;strokeColor=none;align=center;fillColor=none;html=1;verticalAlign=middle;whiteSpace=wrap;rounded=0;fontStyle=1;fontSize=14;" vertex="1" parent="1">
          <mxGeometry x="291" y="641" width="147" height="30" as="geometry" />
        </mxCell>
        <mxCell id="x9DXMicBa2vOHehBVCvL-106" value="Explainable AI" style="text;strokeColor=none;align=center;fillColor=none;html=1;verticalAlign=middle;whiteSpace=wrap;rounded=0;fontStyle=1;fontSize=14;" vertex="1" parent="1">
          <mxGeometry x="585.5" y="641" width="112" height="30" as="geometry" />
        </mxCell>
        <mxCell id="x9DXMicBa2vOHehBVCvL-107" value="Data Preprocessing" style="text;strokeColor=none;align=center;fillColor=none;html=1;verticalAlign=middle;whiteSpace=wrap;rounded=0;fontStyle=1;fontSize=14;" vertex="1" parent="1">
          <mxGeometry x="40" y="86" width="142.5" height="30" as="geometry" />
        </mxCell>
        <mxCell id="x9DXMicBa2vOHehBVCvL-108" value="ML Models" style="text;strokeColor=none;align=center;fillColor=none;html=1;verticalAlign=middle;whiteSpace=wrap;rounded=0;fontStyle=1;fontSize=14;" vertex="1" parent="1">
          <mxGeometry x="441" y="77" width="142.5" height="30" as="geometry" />
        </mxCell>
        <mxCell id="x9DXMicBa2vOHehBVCvL-109" value="&lt;span&gt;&lt;i&gt;BO-StaEnsemble Algorithm&lt;/i&gt;&lt;/span&gt;" style="text;strokeColor=none;align=center;fillColor=none;html=1;verticalAlign=middle;whiteSpace=wrap;rounded=0;fontStyle=1;fontSize=13;opacity=60;fontColor=#0000CC;" vertex="1" parent="1">
          <mxGeometry x="644.5" y="65" width="190" height="30" as="geometry" />
        </mxCell>
      </root>
    </mxGraphModel>
  </diagram>
</mxfile>
